<?xml version="1.0" encoding="UTF-8"?>
<svg width="220px" height="220px" viewBox="0 0 220 220" version="1.1" xmlns="http://www.w3.org/2000/svg" xmlns:xlink="http://www.w3.org/1999/xlink">
    <!-- Generator: Sketch 47.1 (45422) - http://www.bohemiancoding.com/sketch -->
    <title>Arrow - Dark Cyan</title>
    <desc>Created with Sketch.</desc>
    <defs></defs>
    <g id="Page-1" stroke="none" stroke-width="1" fill="none" fill-rule="evenodd">
        <g id="Arrow---Dark-Cyan">
            <rect id="Rectangle" fill="#06B6D4" x="0" y="0" width="220" height="220" rx="40"></rect>
            <path d="M146.005538,145 L70.9944615,145 C62.1609643,145 55,152.163444 55,161 C55,169.836556 62.1609643,177 70.9944615,177 L146.005538,177 C154.839036,177 162,169.836556 162,161 C162,152.163444 154.839036,145 146.005538,145 Z" id="Line-Copy-40" fill="#0891B2" fill-rule="nonzero"></path>
            <path d="M58.6957587,70.3688877 L109.631112,121.304241 C115.892124,127.565253 126.04323,127.565253 132.304241,121.304241 C138.565253,115.04323 138.565253,104.892124 132.304241,98.6311123 L81.3688877,47.6957587 C75.107876,41.4347471 64.9567704,41.4347471 58.6957587,47.6957587 C52.4347471,53.9567704 52.4347471,64.107876 58.6957587,70.3688877 Z" id="Line-Copy-41" fill="#155E75" fill-rule="nonzero"></path>
            <path d="M81.3688877,172.304241 L132.304241,121.368888 C138.565253,115.107876 138.565253,104.95677 132.304241,98.6957587 C126.04323,92.4347471 115.892124,92.4347471 109.631112,98.6957587 L58.6957587,149.631112 C52.4347471,155.892124 52.4347471,166.04323 58.6957587,172.304241 C64.9567704,178.565253 75.107876,178.565253 81.3688877,172.304241 Z" id="Line-Copy-42" fill="#155E75" fill-rule="nonzero"></path>
            <path d="M170.949816,145 L130.050184,145 C121.185912,145 114,152.163444 114,161 C114,169.836556 121.185912,177 130.050184,177 L170.949816,177 C179.814088,177 187,169.836556 187,161 C187,152.163444 179.814088,145 170.949816,145 Z" id="Line-Copy-43" fill="#155E75" fill-rule="nonzero"></path>
        </g>
    </g>
</svg>